<svg width="852" height="215" viewBox="0 0 852 215" fill="none" xmlns="http://www.w3.org/2000/svg">
<circle cx="505.41" cy="24.0672" r="24.0672" transform="rotate(-90 505.41 24.0672)" fill="#121212"/>
<circle cx="585.635" cy="24.0672" r="24.0672" transform="rotate(-90 585.635 24.0672)" fill="#121212"/>
<circle cx="665.858" cy="24.0672" r="24.0672" transform="rotate(-90 665.858 24.0672)" fill="#121212"/>
<circle cx="344.963" cy="107.5" r="24.0672" transform="rotate(-90 344.963 107.5)" fill="#121212"/>
<circle cx="425.187" cy="107.5" r="24.0672" transform="rotate(-90 425.187 107.5)" fill="#121212"/>
<circle cx="505.41" cy="107.5" r="24.0672" transform="rotate(-90 505.41 107.5)" fill="#121212"/>
<circle cx="184.515" cy="24.0672" r="24.0672" transform="rotate(-90 184.515 24.0672)" fill="#121212"/>
<circle cx="264.739" cy="24.0672" r="24.0672" transform="rotate(-90 264.739 24.0672)" fill="#121212"/>
<circle cx="344.963" cy="24.0672" r="24.0672" transform="rotate(-90 344.963 24.0672)" fill="#121212"/>
<circle cx="24.0672" cy="107.5" r="24.0672" transform="rotate(-90 24.0672 107.5)" fill="#121212"/>
<circle cx="104.291" cy="107.5" r="24.0672" transform="rotate(-90 104.291 107.5)" fill="#121212"/>
<circle cx="184.515" cy="107.5" r="24.0672" transform="rotate(-90 184.515 107.5)" fill="#121212"/>
<circle cx="184.515" cy="190.933" r="24.0672" transform="rotate(-90 184.515 190.933)" fill="#121212"/>
<circle cx="264.739" cy="190.933" r="24.0672" transform="rotate(-90 264.739 190.933)" fill="#121212"/>
<circle cx="344.963" cy="190.933" r="24.0672" transform="rotate(-90 344.963 190.933)" fill="#121212"/>
<circle cx="505.41" cy="190.933" r="24.0672" transform="rotate(-90 505.41 190.933)" fill="#121212"/>
<circle cx="585.635" cy="190.933" r="24.0672" transform="rotate(-90 585.635 190.933)" fill="#121212"/>
<circle cx="665.858" cy="190.933" r="24.0672" transform="rotate(-90 665.858 190.933)" fill="#121212"/>
<circle cx="667.463" cy="107.5" r="24.0672" transform="rotate(-90 667.463 107.5)" fill="#121212"/>
<circle cx="747.687" cy="107.5" r="24.0672" transform="rotate(-90 747.687 107.5)" fill="#121212"/>
<circle cx="827.91" cy="107.5" r="24.0672" transform="rotate(-90 827.91 107.5)" fill="#121212"/>
</svg>
